<?xml version="1.0" encoding="utf-8"?>
<!-- Svg Vector Icons : http://www.onlinewebfonts.com/icon -->
<!DOCTYPE svg PUBLIC "-//W3C//DTD SVG 1.1//EN" "http://www.w3.org/Graphics/SVG/1.1/DTD/svg11.dtd">
<svg version="1.1" xmlns="http://www.w3.org/2000/svg" xmlns:xlink="http://www.w3.org/1999/xlink" x="0px" y="0px" viewBox="0 0 256 256" enable-background="new 0 0 256 256" xml:space="preserve">
<metadata> Svg Vector Icons : http://www.onlinewebfonts.com/icon </metadata>
<g><g><path fill="#000000" d="M151.1,9.7L131.8,29c6.6,10.4,13.2,20.7,19.8,31.1c14.7,14.7,29.4,29.4,44,44c10.4,6.6,20.7,13.2,31.1,19.8l19.3-19.3l-34.8-60.1L151.1,9.7L151.1,9.7z M235,129.5c1.1,30.2-9.8,60.8-32.9,83.8c-43.9,43.9-115.2,43.9-159.2,0C-1,169.4-1,98.1,43,54.1C66.1,31,96.8,20.1,127.1,21.3l-4.9,4.9l24.4,38.2l0.7,0.7c14.7,14.7,29.4,29.4,44,44l0.7,0.7l38.3,24.4L235,129.5L235,129.5z M46.4,134.3c2-1.6,2.3-4.5,0.7-6.5l-15.6-19.4c-1.6-2-4.5-2.3-6.5-0.7l-0.1,0c-2,1.6-2.3,4.5-0.7,6.5l15.6,19.4C41.4,135.6,44.4,136,46.4,134.3L46.4,134.3z M89.7,66.1L99,42c0.9-2.4-0.3-5.1-2.6-6l-0.1,0c-2.4-0.9-5.1,0.3-6,2.6L81,62.7c-0.9,2.4,0.3,5.1,2.6,6l0.1,0C86.1,69.7,88.8,68.5,89.7,66.1z M197.3,138.7l16.3,20.3c1.6,2,4.5,2.3,6.5,0.7l0.1-0.1c2-1.6,2.3-4.5,0.7-6.5l-16.4-20.3c-1.6-2-4.5-2.3-6.5-0.7l-0.1,0C196,133.8,195.7,136.7,197.3,138.7z M155.4,201.6l-9.5,24.4c-0.9,2.4,0.3,5.1,2.6,6l0.1,0c2.4,0.9,5.1-0.3,6-2.6l9.5-24.4c0.9-2.4-0.3-5.1-2.6-6l-0.1,0C159,198,156.3,199.2,155.4,201.6z M80.9,195.9l-26,4c-2.5,0.4-4.2,2.7-3.9,5.3l0,0.1c0.4,2.5,2.7,4.3,5.3,3.9l26-4c2.5-0.4,4.2-2.7,3.9-5.3l0-0.1C85.7,197.3,83.4,195.5,80.9,195.9z M153.5,102.7c-2.3-2.3-6-2.3-8.3,0c-2.3,2.3-2.3,6,0,8.3c2.3,2.3,6,2.3,8.3,0C155.8,108.8,155.8,105,153.5,102.7L153.5,102.7z M111.2,91.4c-3.1,0.8-5,4.1-4.2,7.2c0.8,3.1,4.1,5,7.2,4.1c3.1-0.8,5-4.1,4.2-7.2C117.6,92.4,114.4,90.6,111.2,91.4L111.2,91.4z M80.3,122.4c-0.8,3.1,1,6.4,4.1,7.2c3.1,0.8,6.4-1,7.2-4.2c0.8-3.1-1-6.4-4.2-7.2C84.3,117.4,81.1,119.2,80.3,122.4L80.3,122.4z M91.6,164.7c2.3,2.3,6,2.3,8.3,0c2.3-2.3,2.3-6,0-8.3c-2.3-2.3-6-2.3-8.3,0C89.3,158.7,89.3,162.4,91.6,164.7L91.6,164.7z M133.9,176c3.1-0.8,5-4.1,4.1-7.2c-0.8-3.1-4-5-7.2-4.2c-3.1,0.8-5,4.1-4.2,7.2C127.6,175,130.8,176.8,133.9,176L133.9,176z M164.9,145c0.8-3.1-1-6.4-4.1-7.2c-3.1-0.8-6.4,1-7.2,4.1c-0.8,3.1,1,6.4,4.2,7.2C160.8,150,164.1,148.2,164.9,145L164.9,145z M167.3,88.9c-12.2-12.2-28.3-18.4-44.4-18.4c-16.1,0-32.1,6.1-44.4,18.4c-12.3,12.3-18.4,28.3-18.4,44.4c0,16.1,6.1,32.1,18.4,44.4c12.2,12.2,28.3,18.4,44.4,18.4c16.1,0,32.1-6.1,44.4-18.4c12.3-12.3,18.4-28.3,18.4-44.4C185.6,117.2,179.5,101.1,167.3,88.9L167.3,88.9z M173.2,133.2c0,12.9-4.9,25.7-14.7,35.6c-9.8,9.8-22.7,14.7-35.5,14.7c-12.9,0-25.7-4.9-35.5-14.7c-9.8-9.8-14.7-22.7-14.7-35.6c0-12.9,4.9-25.7,14.7-35.5C97.2,87.9,110,83,122.9,83c12.9,0,25.7,4.9,35.5,14.7C168.3,107.5,173.2,120.4,173.2,133.2L173.2,133.2z M105.3,116.4c-9.5,9.5-9.5,25,0,34.6c9.5,9.5,25,9.5,34.6,0c9.5-9.5,9.5-25,0-34.6C130.3,106.9,114.8,106.9,105.3,116.4z"/></g></g>
</svg>