<?xml version="1.0" standalone="no"?>
<!DOCTYPE svg PUBLIC "-//W3C//DTD SVG 20010904//EN"
 "http://www.w3.org/TR/2001/REC-SVG-20010904/DTD/svg10.dtd">
<svg version="1.0" xmlns="http://www.w3.org/2000/svg"
 width="230.000000pt" height="280.000000pt" viewBox="0 0 230.000000 280.000000"
 preserveAspectRatio="xMidYMid meet">

<g transform="translate(0.000000,280.000000) scale(0.100000,-0.100000)"
fill="#000000" stroke="none">
<path d="M1790 2751 c-99 -86 -281 -231 -292 -231 -5 0 -23 9 -38 20 -90 64
-391 86 -555 42 -301 -82 -591 -335 -741 -647 -103 -215 -138 -389 -137 -685
1 -185 4 -215 26 -302 105 -404 350 -717 668 -855 44 -19 124 -46 177 -61 92
-25 109 -26 352 -26 236 -1 261 1 340 22 241 66 440 210 558 405 46 76 103
210 93 220 -4 4 -42 -26 -83 -67 -118 -116 -278 -198 -430 -221 -48 -7 -48 -7
-48 21 0 66 74 131 182 160 139 36 274 141 351 272 50 86 68 150 74 272 9 179
-37 310 -148 421 -71 71 -210 152 -223 130 -3 -4 22 -43 55 -87 171 -228 201
-424 97 -633 -44 -87 -155 -204 -230 -242 -33 -17 -80 -48 -104 -71 l-44 -41
0 937 c0 762 2 936 13 936 13 0 207 -193 310 -309 42 -48 58 -60 63 -48 4 13
-65 242 -202 670 -9 26 -19 47 -22 47 -4 0 -32 -22 -62 -49z m-405 -259 l40
-7 -45 -26 c-158 -92 -407 -169 -543 -169 l-62 0 55 35 c202 127 416 191 555
167z m170 -1310 l-7 -862 -27 -8 c-39 -11 -228 -4 -291 11 l-55 12 45 48 c76
83 163 123 231 108 22 -5 39 -8 40 -7 1 0 7 407 13 904 12 873 13 903 32 916
18 14 19 11 22 -122 2 -75 0 -525 -3 -1000z m-826 1024 c31 -28 138 -75 226
-101 49 -14 93 -31 98 -38 23 -33 46 -98 52 -147 7 -63 -12 -1541 -21 -1549
-8 -8 -140 62 -240 128 -188 125 -295 261 -387 496 -52 131 -77 268 -77 418 0
200 42 366 137 549 50 94 167 258 185 258 6 0 19 -6 27 -14z"/>
</g>
</svg>
