<?xml version="1.0" standalone="no"?>
<!DOCTYPE svg PUBLIC "-//W3C//DTD SVG 20010904//EN"
 "http://www.w3.org/TR/2001/REC-SVG-20010904/DTD/svg10.dtd">
<svg version="1.0" xmlns="http://www.w3.org/2000/svg"
 width="484.000000pt" height="628.000000pt" viewBox="0 0 484.000000 628.000000"
 preserveAspectRatio="xMidYMid meet">

<g transform="translate(0.000000,628.000000) scale(0.100000,-0.100000)"
fill="#000000" stroke="none">
<path d="M2363 6088 c-96 -161 -207 -688 -259 -1224 -3 -40 -10 -77 -14 -84
-5 -8 -134 114 -396 376 -597 598 -901 861 -980 852 -25 -3 -29 -8 -32 -37
-16 -166 269 -871 767 -1895 67 -137 120 -250 119 -251 -2 -1 -91 -14 -198
-29 -399 -57 -862 -146 -1067 -205 -261 -75 -315 -136 -179 -200 112 -54 410
-131 763 -197 l152 -28 -6 -31 c-3 -16 -28 -118 -56 -225 -42 -163 -51 -215
-56 -319 l-6 -123 -42 -38 c-26 -23 -65 -44 -100 -54 -216 -65 -328 -112 -340
-143 -10 -25 27 -83 102 -159 79 -80 146 -121 255 -157 180 -60 324 -63 435
-8 76 38 77 39 314 356 98 132 226 294 283 360 103 119 213 218 233 212 5 -2
13 -53 17 -113 43 -670 133 -1403 234 -1914 66 -335 154 -655 177 -647 29 9
79 224 122 517 42 293 93 850 126 1363 7 103 15 184 19 180 4 -4 92 -143 196
-308 442 -705 695 -1075 734 -1075 9 0 200 380 229 456 l12 31 147 7 c173 9
393 33 405 45 5 5 -285 395 -647 872 -360 475 -654 864 -653 865 1 1 63 7 137
13 579 48 1035 144 1325 280 44 21 91 47 105 59 l25 20 -24 25 c-42 45 -212
98 -506 156 -190 37 -455 79 -581 91 -53 5 -101 13 -107 19 -24 24 267 130
428 156 55 9 123 23 151 31 58 16 182 99 212 141 51 72 77 239 66 423 -10 167
-67 350 -109 350 -7 0 -35 -30 -61 -67 -123 -175 -243 -293 -298 -293 -12 0
-60 13 -108 30 -338 113 -695 117 -938 10 -38 -17 -82 -30 -98 -30 l-29 0 -7
186 c-28 786 -149 1322 -317 1409 -15 8 -32 15 -36 15 -5 0 -23 -24 -40 -52z
m97 -303 c44 -117 99 -604 136 -1211 l6 -110 -38 -31 c-51 -40 -97 -63 -127
-63 -28 0 -97 57 -127 105 -21 33 -21 39 -10 192 29 430 57 719 91 921 20 120
45 222 55 222 2 0 9 -11 14 -25z m-919 -766 c283 -298 515 -545 517 -548 5
-14 -54 -61 -93 -74 -22 -8 -39 -17 -38 -21 0 -4 67 -90 148 -190 l148 -183
91 57 c247 155 663 371 761 396 183 46 492 7 735 -93 143 -59 205 -41 349 105
l94 96 -6 -100 c-11 -175 -63 -286 -153 -329 -21 -10 -71 -21 -112 -26 -168
-19 -390 -98 -665 -238 -281 -143 -667 -377 -667 -404 0 -7 331 -447 735 -977
694 -911 733 -965 707 -968 -15 -2 -94 -8 -176 -15 l-148 -12 -61 -148 c-33
-81 -63 -147 -67 -147 -3 0 -24 30 -47 68 -909 1479 -1226 1987 -1241 1990
-19 3 -181 -106 -362 -243 -344 -260 -646 -583 -795 -849 -34 -61 -40 -67 -88
-81 -105 -31 -205 -12 -300 55 -31 23 -57 45 -57 49 0 5 31 11 69 13 83 6 143
33 200 90 59 60 91 129 91 197 0 80 19 274 35 358 23 121 92 247 253 462 160
214 352 395 533 502 84 50 88 53 76 73 -8 12 -62 103 -122 203 -67 115 -112
180 -119 176 -6 -4 -28 -17 -50 -31 -32 -20 -41 -22 -51 -10 -23 23 -175 307
-272 507 -159 329 -382 831 -369 831 2 0 235 -244 517 -541z m2029 -1410 c353
-50 657 -111 718 -143 l24 -13 -40 -16 c-170 -68 -532 -113 -1002 -124 l-265
-6 -45 64 c-25 35 -45 68 -45 72 0 4 86 53 190 107 149 78 196 98 220 95 17
-3 127 -18 245 -36z m-2200 -46 c-19 -21 -73 -78 -120 -126 l-85 -88 -50 6
c-254 30 -451 66 -533 97 -29 11 -52 22 -50 23 7 7 406 86 528 104 69 11 174
20 234 20 l110 1 -34 -37z m988 -660 c73 -97 138 -198 198 -308 l46 -85 -11
-198 c-28 -476 -64 -941 -91 -1157 -15 -115 -41 -229 -50 -219 -38 42 -92 478
-120 969 -20 368 -45 1075 -37 1075 4 0 33 -35 65 -77z"/>
</g>
</svg>
