<?xml version="1.0" standalone="no"?>
<!DOCTYPE svg PUBLIC "-//W3C//DTD SVG 20010904//EN"
 "http://www.w3.org/TR/2001/REC-SVG-20010904/DTD/svg10.dtd">
<svg version="1.0" xmlns="http://www.w3.org/2000/svg"
 width="230.000000pt" height="280.000000pt" viewBox="0 0 230.000000 280.000000"
 preserveAspectRatio="xMidYMid meet">

<g transform="translate(0.000000,280.000000) scale(0.100000,-0.100000)"
fill="#000000" stroke="none">
<path d="M1732 2674 c-28 -18 -53 -37 -56 -42 -3 -5 8 -78 24 -163 78 -416
113 -745 114 -1049 0 -261 -12 -344 -64 -457 -26 -57 -38 -69 -147 -150 -120
-89 -245 -169 -302 -192 l-31 -13 0 -269 c0 -172 4 -269 10 -269 23 0 219 93
323 154 152 88 265 173 367 275 97 98 156 179 209 290 36 76 36 76 39 236 10
401 -64 1071 -162 1477 l-21 89 -127 58 -126 59 -50 -34z m68 2 c0 -2 14 -82
30 -178 84 -485 123 -855 124 -1168 1 -246 -13 -349 -59 -439 -27 -53 -150
-175 -257 -254 -123 -91 -348 -212 -348 -187 0 5 29 23 64 39 152 69 308 177
435 302 127 125 146 196 146 544 -1 241 -10 365 -51 683 -21 170 -86 579 -101
640 -3 13 -1 22 6 22 6 0 11 -2 11 -4z"/>
<path d="M367 2627 c-95 -55 -108 -66 -117 -97 -21 -79 -70 -336 -94 -490
-119 -773 -70 -1302 139 -1501 177 -169 599 -444 728 -475 l27 -6 -2 268 -3
269 -80 47 c-144 83 -306 192 -350 233 -49 47 -77 113 -101 243 -22 116 -30
582 -15 821 14 210 49 581 60 633 8 34 6 39 -33 77 -23 23 -44 41 -46 40 -3 0
-53 -28 -113 -62z m98 -114 c-63 -366 -95 -677 -102 -998 -8 -394 24 -584 117
-695 96 -115 253 -229 443 -321 59 -28 107 -56 107 -60 0 -11 -30 1 -141 57
-177 88 -327 199 -419 307 -37 44 -56 78 -74 135 -42 133 -51 226 -51 517 1
328 24 584 95 1023 17 101 30 186 30 190 0 3 4 2 10 -4 6 -6 0 -60 -15 -151z"/>
<path d="M1106 2573 c-10 -75 -24 -304 -32 -505 l-6 -187 -61 77 c-105 133
-330 342 -368 342 -23 0 -4 -55 47 -136 73 -116 106 -156 236 -290 l109 -111
-133 -6 c-130 -7 -245 -24 -301 -46 -69 -27 10 -41 275 -50 l176 -6 -60 -70
c-196 -228 -378 -477 -378 -516 0 -20 1 -20 42 3 90 50 270 257 393 452 l50
78 6 -383 c4 -211 10 -395 13 -409 4 -14 12 -44 18 -68 6 -23 16 -41 22 -39 6
2 17 26 25 53 11 38 15 124 15 389 0 187 -4 369 -8 405 l-8 65 82 -115 c147
-207 272 -351 362 -416 51 -38 76 -36 63 5 -20 64 -156 244 -325 430 l-100
109 118 7 c172 10 322 44 322 74 0 27 -130 52 -308 60 l-143 6 55 66 c154 187
327 440 306 447 -24 8 -218 -172 -378 -350 -23 -27 -44 -48 -46 -48 -2 0 -4
78 -5 173 -1 153 -13 346 -26 417 -16 96 -27 140 -34 140 -5 0 -11 -21 -15
-47z m34 -446 l5 -402 186 235 c103 129 199 246 215 260 l28 25 -25 -35 c-13
-19 -102 -134 -198 -255 -96 -121 -179 -226 -185 -234 -9 -12 24 -13 236 -8
162 5 249 4 253 -3 6 -9 -149 -15 -412 -15 -40 0 -73 -4 -74 -9 -1 -4 106
-134 237 -289 263 -309 270 -317 255 -317 -12 0 -396 450 -450 526 -53 76 -67
76 -64 0 8 -176 8 -865 1 -852 -5 9 -12 218 -15 465 -4 318 -9 448 -17 445 -6
-2 -18 -17 -27 -32 -22 -38 -364 -470 -401 -507 -64 -63 -16 3 197 271 121
153 222 281 223 286 2 4 -103 8 -234 8 -156 0 -235 3 -228 10 5 5 106 11 238
12 l228 3 -221 260 c-122 143 -227 269 -233 280 -23 42 46 -33 231 -250 103
-121 198 -233 212 -248 l24 -28 -3 408 c-2 224 0 404 4 400 5 -4 11 -189 14
-410z"/>
</g>
</svg>
