<?xml version="1.0" standalone="no"?>
<!DOCTYPE svg PUBLIC "-//W3C//DTD SVG 20010904//EN"
 "http://www.w3.org/TR/2001/REC-SVG-20010904/DTD/svg10.dtd">
<svg version="1.0" xmlns="http://www.w3.org/2000/svg"
 width="230.000000pt" height="280.000000pt" viewBox="0 0 230.000000 280.000000"
 preserveAspectRatio="xMidYMid meet">

<g transform="translate(0.000000,280.000000) scale(0.100000,-0.100000)"
fill="#000000" stroke="none">
<path d="M1644 2610 c-117 -76 -215 -143 -218 -148 -3 -6 -37 -347 -76 -759
-38 -411 -72 -769 -76 -796 l-6 -47 -83 0 -84 0 -6 33 c-3 17 -39 378 -79 801
-41 422 -78 772 -83 777 -17 17 -414 269 -425 269 -5 0 -8 -6 -6 -12 3 -7 110
-471 239 -1030 l233 -1018 185 1 c103 1 199 4 216 8 l30 6 232 1010 c128 556
232 1018 233 1028 0 9 -3 17 -7 17 -5 0 -103 -63 -219 -140z m200 98 c-4 -7
-68 -89 -143 -182 l-135 -168 -47 -312 c-26 -171 -79 -526 -119 -788 l-72
-477 27 -36 c37 -47 26 -55 -13 -10 l-31 35 -131 0 -130 0 -22 -35 c-13 -19
-26 -35 -30 -35 -13 0 -9 14 12 40 11 14 20 34 20 45 0 12 -52 366 -115 788
-63 422 -115 772 -115 777 0 5 -51 71 -113 147 -137 167 -162 201 -156 208 3
3 64 -67 135 -154 71 -88 133 -160 137 -160 5 -1 27 12 50 27 60 41 67 44 67
34 0 -5 -22 -25 -50 -43 -33 -23 -50 -41 -50 -55 0 -18 190 -1307 221 -1496
l11 -68 128 0 128 0 6 27 c3 16 49 314 101 663 52 349 104 689 114 755 l20
120 -32 25 c-61 49 -82 69 -71 70 6 0 32 -16 57 -35 25 -19 48 -35 51 -35 3 0
62 71 133 158 112 138 150 180 161 182 2 0 0 -6 -4 -12z"/>
<path d="M1459 698 l-14 -83 -38 -3 c-20 -2 -37 -6 -37 -9 0 -6 250 -523 258
-533 2 -3 29 23 60 58 l57 62 163 0 c124 0 162 3 162 13 0 47 -217 295 -360
412 -79 64 -219 165 -230 165 -4 0 -13 -37 -21 -82z m116 -253 c69 -100 114
-157 128 -160 12 -3 94 -21 182 -39 88 -19 144 -35 125 -35 -19 -1 -94 11
-167 25 -72 15 -138 24 -145 22 -7 -3 -22 -38 -33 -78 -11 -39 -23 -74 -27
-76 -13 -8 -9 21 13 91 11 37 18 73 15 80 -2 7 -50 78 -105 158 -89 127 -112
167 -97 167 2 0 52 -70 111 -155z"/>
<path d="M818 732 c-91 -59 -213 -169 -324 -290 -109 -119 -194 -224 -194
-240 0 -5 75 -12 167 -15 l168 -6 51 -58 c29 -32 54 -56 57 -53 9 9 257 531
257 541 0 4 -17 7 -37 6 l-36 -2 -17 74 c-8 41 -20 76 -25 77 -6 2 -35 -14
-67 -34z m93 -159 c-5 -10 -53 -76 -105 -148 -61 -83 -96 -139 -95 -155 0 -14
6 -52 14 -85 17 -70 19 -93 6 -79 -5 5 -16 42 -25 83 -10 41 -19 78 -21 81 -2
4 -71 -6 -152 -21 -81 -16 -161 -31 -178 -34 -22 -4 -27 -3 -18 6 7 7 89 26
183 44 93 18 172 34 174 36 1 2 49 68 106 147 57 78 107 142 112 142 5 0 4 -8
-1 -17z"/>
</g>
</svg>
