<?xml version="1.0" standalone="no"?>
<!DOCTYPE svg PUBLIC "-//W3C//DTD SVG 20010904//EN"
 "http://www.w3.org/TR/2001/REC-SVG-20010904/DTD/svg10.dtd">
<svg version="1.0" xmlns="http://www.w3.org/2000/svg"
 width="184.000000pt" height="224.000000pt" viewBox="0 0 184.000000 224.000000"
 preserveAspectRatio="xMidYMid meet">

<g transform="translate(0.000000,224.000000) scale(0.100000,-0.100000)"
fill="#000000" stroke="none">
<path d="M762 2158 c2 -7 30 -30 61 -51 55 -37 71 -62 44 -73 -7 -2 -52 14
-100 36 -48 22 -90 40 -92 40 -3 0 -5 -52 -5 -115 0 -63 4 -115 8 -115 5 0 46
25 92 55 45 31 88 54 94 52 27 -9 14 -40 -38 -95 -31 -33 -56 -64 -56 -70 0
-9 47 -12 165 -12 91 0 165 3 165 7 0 3 -27 37 -61 75 -59 67 -70 98 -33 98 9
0 51 -25 95 -56 43 -30 83 -52 89 -49 12 8 14 212 1 219 -5 3 -48 -13 -95 -35
-70 -32 -90 -38 -102 -29 -22 19 -18 27 46 70 33 22 60 45 60 50 0 6 -68 10
-171 10 -132 0 -170 -3 -167 -12z"/>
<path d="M645 1682 c-111 -118 -125 -140 -120 -181 3 -20 26 -272 51 -561 26
-289 48 -526 49 -528 6 -7 209 -52 213 -47 3 3 -3 209 -13 458 -26 641 -26
622 8 680 l28 47 74 0 75 0 24 -48 c13 -26 27 -64 31 -83 3 -18 -5 -263 -19
-544 -14 -280 -23 -511 -21 -513 2 -3 53 8 112 22 l109 27 47 542 c26 298 48
553 47 567 0 32 -150 215 -182 224 -13 3 -119 6 -236 6 l-213 0 -64 -68z"/>
<path d="M160 1692 c-47 -23 -83 -96 -88 -176 -2 -35 16 -211 42 -411 26 -192
56 -427 68 -521 l22 -171 129 -14 129 -15 -6 46 c-28 213 -116 1005 -116 1042
0 38 5 50 26 67 16 12 35 19 48 16 16 -4 39 11 90 58 l69 63 -174 13 c-96 7
-181 14 -189 17 -8 2 -31 -4 -50 -14z"/>
<path d="M1477 1692 c-97 -9 -176 -19 -175 -23 2 -3 33 -32 69 -62 49 -42 71
-55 87 -51 26 7 72 -35 72 -68 0 -13 -27 -263 -61 -556 -34 -293 -59 -535 -56
-539 4 -3 61 0 126 7 117 13 120 14 125 39 6 26 103 779 127 976 10 89 10 108
-5 159 -19 64 -67 123 -106 129 -14 2 -105 -3 -203 -11z"/>
<path d="M220 312 l0 -29 83 -6 c106 -9 1226 -9 1295 -1 44 6 52 10 52 28 l0
21 -673 0 c-369 0 -691 3 -714 8 -42 7 -43 7 -43 -21z"/>
<path d="M230 237 c0 -22 6 -27 33 -31 71 -11 689 -18 1023 -11 l354 8 0 29
c0 29 -1 30 -35 24 -48 -9 -1049 -10 -1227 -1 l-148 8 0 -26z"/>
<path d="M240 171 c0 -11 5 -43 11 -70 8 -37 16 -52 32 -57 28 -10 1313 -11
1322 -2 4 4 13 35 19 70 l12 63 -671 0 c-368 0 -682 3 -697 8 -24 6 -28 4 -28
-12z"/>
</g>
</svg>
