<?xml version="1.0" standalone="no"?>
<!DOCTYPE svg PUBLIC "-//W3C//DTD SVG 20010904//EN"
 "http://www.w3.org/TR/2001/REC-SVG-20010904/DTD/svg10.dtd">
<svg version="1.0" xmlns="http://www.w3.org/2000/svg"
 width="512.000000pt" height="512.000000pt" viewBox="0 0 512.000000 512.000000"
 preserveAspectRatio="xMidYMid meet">

<g transform="translate(0.000000,512.000000) scale(0.100000,-0.100000)"
fill="#000000" stroke="none">
<path d="M264 3661 c-96 -24 -195 -107 -237 -199 l-22 -47 0 -855 0 -855 22
-47 c30 -66 105 -143 172 -175 l56 -28 340 0 340 0 67 33 c73 36 124 87 160
161 20 39 23 65 26 177 l3 131 78 6 c165 11 254 98 268 262 l6 76 241 -3 241
-3 65 -31 c36 -17 94 -55 129 -83 122 -99 230 -137 371 -128 130 7 206 43 364
167 88 69 143 80 400 80 l223 0 6 -75 c14 -163 104 -251 267 -262 l79 -6 3
-131 c3 -112 6 -138 26 -177 36 -74 87 -125 160 -161 l67 -33 340 0 340 0 56
28 c67 32 142 109 172 175 l22 47 0 855 0 855 -22 47 c-30 66 -105 143 -172
175 l-56 28 -340 0 -340 0 -67 -33 c-73 -36 -124 -87 -160 -161 -20 -39 -23
-65 -26 -177 l-3 -131 -79 -6 c-163 -11 -253 -99 -267 -262 l-6 -76 -241 3
-241 3 -65 31 c-36 17 -94 55 -129 83 -111 90 -217 131 -341 131 -124 0 -230
-41 -341 -131 -35 -28 -93 -66 -129 -83 l-65 -31 -241 -3 -241 -3 -6 76 c-14
164 -103 251 -268 262 l-78 6 -3 131 c-3 112 -6 138 -26 177 -36 74 -87 125
-160 161 l-67 33 -320 2 c-176 1 -334 -2 -351 -6z m683 -193 c77 -51 73 2 73
-908 0 -910 4 -857 -73 -908 l-40 -27 -276 -3 c-152 -2 -295 0 -319 3 -50 7
-108 53 -128 102 -21 48 -20 1619 0 1666 17 40 64 85 102 97 16 5 162 8 325 7
l296 -2 40 -27z m3883 22 c41 -11 94 -61 109 -103 8 -19 11 -289 11 -830 0
-899 5 -839 -73 -901 l-39 -31 -312 0 -312 0 -41 27 c-78 51 -74 -4 -71 920
l3 823 22 31 c13 18 42 41 65 53 41 20 58 21 323 21 154 0 296 -5 315 -10z
m-3510 -515 c20 -10 32 -27 39 -53 15 -50 14 -674 0 -725 -12 -46 -57 -70
-122 -65 l-42 3 -3 415 c-1 228 0 421 3 427 6 18 89 16 125 -2z m2605 -415 l0
-425 -47 -3 c-65 -4 -104 18 -117 66 -14 50 -14 674 0 724 13 49 48 68 114 65
l50 -2 0 -425z m-1230 311 c26 -11 79 -47 120 -80 153 -123 222 -141 532 -141
l233 0 0 -90 0 -90 -233 0 c-309 0 -379 -19 -530 -140 -85 -67 -114 -83 -186
-100 -109 -26 -219 7 -324 98 -32 27 -86 64 -120 81 -108 54 -157 61 -414 61
l-233 0 0 90 0 90 233 0 c311 0 378 18 530 140 80 64 118 86 174 100 56 14
165 4 218 -19z"/>
</g>
</svg>
