<?xml version="1.0" standalone="no"?>
<!DOCTYPE svg PUBLIC "-//W3C//DTD SVG 20010904//EN"
 "http://www.w3.org/TR/2001/REC-SVG-20010904/DTD/svg10.dtd">
<svg version="1.0" xmlns="http://www.w3.org/2000/svg"
 width="512.000000pt" height="512.000000pt" viewBox="0 0 512.000000 512.000000"
 preserveAspectRatio="xMidYMid meet">

<g transform="translate(0.000000,512.000000) scale(0.100000,-0.100000)"
fill="#000000" stroke="none">
<path d="M1223 4470 c-99 -23 -154 -123 -118 -215 19 -52 61 -90 113 -105 23
-6 197 -10 450 -10 l412 0 0 -75 0 -75 -402 0 c-222 -1 -423 -5 -447 -9 -96
-19 -141 -88 -141 -218 l0 -83 -198 0 c-188 0 -201 -1 -242 -23 -30 -16 -51
-37 -67 -67 l-23 -43 0 -464 0 -463 -115 0 -115 0 0 465 c0 516 1 511 -65 560
-81 62 -197 36 -242 -55 l-23 -44 0 -1090 c0 -1067 0 -1091 20 -1130 53 -110
204 -125 278 -28 l27 35 3 479 3 478 114 0 115 0 0 -459 c0 -300 4 -469 11
-488 15 -42 68 -92 109 -103 19 -6 180 -10 365 -10 l330 0 330 -276 c181 -152
343 -283 360 -292 27 -15 111 -17 898 -20 585 -2 881 1 907 8 49 13 99 54 116
97 11 24 14 92 14 273 l0 240 64 0 65 0 3 -159 c3 -143 5 -162 24 -188 57 -76
111 -87 401 -81 201 4 223 9 271 61 12 13 83 162 158 330 l134 306 -2 603 -3
603 -129 290 c-70 160 -139 305 -153 323 -43 57 -68 62 -335 62 -269 0 -287
-4 -336 -68 -26 -35 -27 -39 -30 -199 l-3 -163 -64 0 -63 0 -4 139 c-3 151 -9
169 -69 214 -42 31 -94 37 -321 37 l-218 0 0 249 c0 241 -1 249 -22 281 -30
44 -66 69 -114 80 -21 5 -220 10 -441 10 l-403 0 0 75 0 74 433 3 c425 3 433
3 467 25 126 78 96 266 -47 302 -49 13 -1988 14 -2040 1z m1837 -1059 c0 -145
4 -251 11 -268 15 -42 68 -92 109 -103 19 -5 137 -10 263 -10 l227 0 0 -127
c0 -152 15 -191 89 -230 43 -22 51 -23 305 -23 252 0 264 1 306 23 30 14 53
36 67 62 21 36 23 53 23 193 l0 152 69 0 68 0 97 -218 96 -217 0 -521 0 -521
-94 -214 -95 -214 -70 -3 -70 -3 -3 160 c-3 176 -8 191 -77 238 -44 30 -103
35 -361 31 -241 -3 -257 -7 -307 -60 -39 -42 -43 -71 -43 -319 l0 -239 -739 0
-739 0 -341 285 c-187 157 -342 286 -343 287 -2 1 -140 5 -308 8 l-305 5 -3
892 -2 892 214 3 c238 3 244 5 294 78 19 28 22 46 22 126 l0 94 820 0 820 0 0
-239z"/>
</g>
</svg>
