<?xml version="1.0" standalone="no"?>
<!DOCTYPE svg PUBLIC "-//W3C//DTD SVG 20010904//EN"
 "http://www.w3.org/TR/2001/REC-SVG-20010904/DTD/svg10.dtd">
<svg version="1.0" xmlns="http://www.w3.org/2000/svg"
 width="484.000000pt" height="628.000000pt" viewBox="0 0 484.000000 628.000000"
 preserveAspectRatio="xMidYMid meet">

<g transform="translate(0.000000,628.000000) scale(0.100000,-0.100000)"
fill="#000000" stroke="none">
<path d="M3775 6241 c-3 -10 -1 -30 4 -43 5 -14 17 -65 25 -114 9 -49 23 -125
31 -169 25 -137 66 -366 81 -460 8 -49 21 -130 29 -180 87 -534 160 -1136 201
-1670 25 -310 25 -946 1 -1135 -34 -269 -64 -391 -131 -532 -65 -137 -465
-534 -711 -707 -113 -79 -194 -131 -257 -166 -66 -37 -236 -121 -276 -136 -29
-11 -26 -43 4 -47 45 -6 360 165 545 297 180 127 505 428 649 599 116 138 179
322 219 642 37 287 37 852 0 1275 -29 337 -84 845 -109 1010 -5 33 -16 112
-25 175 -45 319 -112 727 -165 1005 -5 28 -18 102 -30 165 -35 193 -40 210
-60 210 -10 0 -21 -8 -25 -19z"/>
<path d="M1001 6228 c-8 -23 -52 -242 -91 -458 -11 -63 -24 -137 -29 -165 -6
-27 -17 -97 -26 -155 -8 -58 -20 -130 -25 -160 -12 -72 -45 -302 -65 -460 -9
-69 -20 -156 -25 -195 -11 -77 -43 -407 -59 -605 -51 -611 -44 -1364 15 -1687
44 -239 191 -520 397 -757 137 -158 343 -335 554 -475 67 -45 123 -81 125 -81
2 0 53 -28 114 -62 137 -79 189 -102 208 -95 36 14 11 38 -107 100 -68 36
-148 81 -180 101 -31 20 -58 36 -60 36 -11 0 -210 140 -297 209 -121 95 -328
302 -408 408 -106 140 -180 272 -240 428 -41 106 -59 179 -71 300 -55 539 -45
1176 29 1910 13 126 25 225 60 505 45 356 151 995 211 1264 11 49 18 95 15
103 -8 21 -36 15 -45 -9z"/>
<path d="M2361 6057 c-9 -11 -9 -216 -1 -878 5 -475 10 -943 11 -1039 2 -96
-1 -175 -6 -175 -5 0 -38 39 -74 86 -36 48 -80 104 -97 125 -18 22 -58 73 -90
115 -33 42 -72 94 -89 115 -51 66 -299 388 -320 415 -11 14 -39 50 -62 80
-121 154 -181 233 -250 324 -92 122 -102 131 -122 110 -11 -11 -13 -20 -6 -29
13 -18 163 -214 255 -331 39 -49 115 -148 170 -220 56 -71 131 -169 168 -216
37 -48 103 -133 146 -190 44 -57 85 -110 92 -119 123 -150 265 -344 260 -356
-4 -11 -34 -14 -153 -14 -81 -1 -233 -5 -338 -10 -104 -5 -311 -12 -460 -15
-148 -4 -280 -8 -293 -11 -17 -3 -22 -10 -20 -27 3 -22 5 -22 163 -20 88 1
364 10 613 19 249 9 456 13 460 10 9 -9 -3 -27 -133 -201 -60 -81 -165 -222
-233 -314 -67 -91 -138 -186 -157 -211 -19 -25 -70 -94 -115 -155 -44 -60 -86
-117 -93 -125 -7 -9 -28 -37 -47 -63 -19 -26 -60 -80 -90 -120 -125 -163 -162
-218 -156 -232 10 -28 41 -14 76 36 19 27 89 122 156 212 66 89 233 313 370
497 137 184 299 401 359 483 60 81 112 147 116 147 8 0 17 -523 25 -1390 3
-371 7 -687 10 -703 6 -29 25 -35 42 -14 7 8 8 164 2 492 -5 264 -12 735 -16
1048 -6 507 -5 567 9 567 8 0 24 -15 36 -32 11 -18 51 -72 88 -119 37 -48 104
-133 147 -190 44 -57 91 -118 105 -135 14 -17 58 -74 98 -125 105 -137 395
-511 465 -602 38 -48 67 -77 77 -75 41 8 28 30 -214 337 -100 127 -140 179
-160 205 -11 16 -56 74 -100 129 -92 118 -167 215 -266 344 -39 51 -76 99 -82
105 -7 7 -24 29 -37 48 -13 19 -44 59 -68 87 -55 65 -51 83 15 83 26 0 172 4
323 10 151 6 401 14 554 20 214 7 283 13 294 23 11 12 11 17 -3 31 -9 9 -26
14 -38 11 -12 -2 -173 -9 -357 -15 -184 -6 -444 -15 -577 -20 -297 -12 -283
-12 -283 1 0 9 46 76 61 89 3 3 46 59 94 125 144 195 509 686 748 1006 87 116
157 219 155 228 -7 35 -36 21 -82 -39 -25 -33 -46 -62 -46 -65 0 -3 -7 -13
-15 -22 -8 -10 -68 -90 -133 -178 -273 -366 -660 -886 -724 -972 -38 -51 -73
-93 -78 -93 -15 0 -20 189 -31 1145 -11 963 -13 994 -48 952z"/>
</g>
</svg>
