<?xml version="1.0" standalone="no"?>
<!DOCTYPE svg PUBLIC "-//W3C//DTD SVG 20010904//EN"
 "http://www.w3.org/TR/2001/REC-SVG-20010904/DTD/svg10.dtd">
<svg version="1.0" xmlns="http://www.w3.org/2000/svg"
 width="980.000000pt" height="982.000000pt" viewBox="0 0 980.000000 982.000000"
 preserveAspectRatio="xMidYMid meet">

<g transform="translate(0.000000,982.000000) scale(0.100000,-0.100000)"
fill="#000000" stroke="none">
<path d="M4421 9810 c-214 -18 -428 -60 -438 -86 -2 -6 -25 -15 -51 -19 -133
-19 -530 -134 -737 -214 -321 -123 -758 -342 -1015 -509 -459 -297 -954 -779
-1303 -1267 -422 -591 -740 -1403 -841 -2145 -34 -246 -45 -717 -26 -1060 43
-765 334 -1618 787 -2309 189 -288 360 -498 613 -752 829 -831 1853 -1317
3010 -1429 186 -18 545 -23 735 -11 871 57 1732 337 2410 786 761 503 1324
1142 1720 1950 281 573 432 1113 497 1770 21 216 16 694 -11 913 -163 1358
-795 2510 -1834 3340 -445 356 -971 636 -1537 820 -361 117 -659 179 -998 208
-210 17 -833 26 -981 14z m764 -880 c110 -6 208 -13 218 -16 17 -5 18 -14 12
-102 -10 -150 -53 -490 -85 -667 -16 -88 -65 -376 -109 -640 -109 -661 -137
-780 -198 -837 -23 -21 -33 -23 -138 -23 -112 0 -114 0 -144 29 -52 50 -69
117 -165 661 -126 715 -217 1299 -232 1493 -5 75 -4 92 7 93 205 18 578 22
834 9z m947 -193 c359 -119 660 -265 977 -474 340 -224 629 -477 859 -754 82
-98 288 -372 315 -417 17 -30 17 -31 -5 -52 -51 -48 -360 -186 -1303 -585
-609 -257 -823 -335 -925 -335 -114 0 -246 71 -309 167 -59 89 -66 131 -65
388 1 190 11 344 58 880 76 878 102 1143 122 1233 3 15 12 22 29 22 14 0 125
-33 247 -73z m-2228 -37 c20 -101 39 -272 81 -730 103 -1138 122 -1507 84
-1624 -16 -48 -97 -138 -153 -170 -63 -37 -135 -58 -197 -57 -103 0 -240 51
-1134 424 -943 393 -1105 468 -1105 509 0 24 112 188 226 330 519 646 1106
1056 1929 1348 142 50 228 70 242 57 6 -7 18 -46 27 -87z m4657 -2117 c101
-222 173 -427 238 -675 53 -202 63 -255 51 -278 -12 -22 -62 -32 -720 -140
-811 -133 -1338 -210 -1437 -210 -42 0 -51 4 -89 44 -49 51 -84 136 -84 203 0
82 52 119 535 380 612 332 1418 743 1456 743 15 0 28 -17 50 -67z m-7027 -81
c473 -230 1328 -672 1541 -797 124 -73 175 -130 175 -193 0 -59 -40 -164 -76
-200 l-35 -35 -142 6 c-149 6 -206 13 -617 77 -140 22 -381 58 -535 80 -403
58 -769 121 -889 151 l-39 11 6 61 c17 174 193 723 296 926 20 38 25 42 48 36
14 -3 134 -59 267 -123z m3388 -212 c46 -13 93 -66 102 -115 9 -45 -24 -118
-67 -149 -39 -29 -113 -27 -156 3 -36 26 -71 88 -71 126 0 53 52 118 106 135
39 11 44 11 86 0z m102 -815 c94 -17 171 -58 254 -131 166 -148 236 -338 203
-554 -32 -211 -212 -412 -426 -476 -89 -27 -249 -25 -340 3 -246 77 -409 285
-423 540 -6 116 9 197 54 290 76 154 258 303 407 332 68 14 189 12 271 -4z
m-1250 -60 c68 -32 92 -145 47 -218 -59 -96 -203 -83 -245 23 -21 52 -20 75 4
127 33 74 118 104 194 68z m2377 -7 c114 -64 81 -232 -52 -268 -46 -13 -89 3
-134 50 -40 42 -46 121 -13 170 46 68 128 88 199 48z m-5036 -299 c174 -35
909 -202 1435 -325 403 -95 571 -142 643 -182 88 -48 142 -131 172 -264 32
-145 -5 -226 -235 -512 -216 -269 -1101 -1288 -1248 -1436 l-93 -95 -45 49
c-107 117 -299 405 -427 640 -256 469 -406 957 -462 1498 -16 154 -32 635 -22
660 7 19 65 12 282 -33z m7807 29 c16 -31 16 -474 0 -628 -76 -714 -316 -1347
-751 -1979 -130 -189 -154 -216 -178 -203 -71 38 -752 803 -1296 1455 -263
315 -302 382 -295 512 3 55 11 86 39 145 48 100 75 130 156 173 122 63 254 99
948 262 226 53 475 111 555 130 153 36 618 140 660 148 14 2 53 5 87 6 55 1
64 -2 75 -21z m-4710 -1098 c20 -6 50 -26 67 -46 26 -29 31 -43 31 -87 0 -65
-25 -109 -79 -137 -55 -28 -91 -25 -139 10 -54 39 -76 81 -69 133 7 53 33 87
87 115 51 25 52 25 102 12z m1454 -6 c46 -22 92 -76 99 -118 12 -60 -55 -149
-121 -162 -99 -18 -194 77 -170 170 12 50 96 126 139 126 11 0 34 -7 53 -16z
m-1843 -522 c118 -63 169 -140 147 -223 -26 -95 -829 -1713 -917 -1849 -71
-108 -73 -109 -139 -77 -164 81 -787 538 -808 593 -9 24 117 157 739 779 542
543 710 700 828 776 66 43 72 43 150 1z m2282 5 c111 -76 529 -471 1115 -1055
l485 -483 -55 -50 c-157 -145 -479 -385 -674 -503 -117 -71 -150 -84 -174 -69
-30 18 -362 645 -695 1313 -262 524 -304 628 -289 707 7 37 81 106 154 142 66
33 81 33 133 -2z m-1156 -238 c146 -23 220 -87 375 -323 177 -268 814 -1318
965 -1589 99 -178 119 -226 100 -238 -45 -28 -571 -179 -744 -214 -259 -52
-364 -60 -750 -60 -390 1 -530 13 -808 70 -261 54 -687 191 -687 220 0 28 236
447 500 890 380 636 668 1084 739 1148 62 56 142 91 241 106 3 1 34 -4 69 -10z"/>
</g>
</svg>
