<?xml version="1.0" standalone="no"?>
<!DOCTYPE svg PUBLIC "-//W3C//DTD SVG 20010904//EN"
 "http://www.w3.org/TR/2001/REC-SVG-20010904/DTD/svg10.dtd">
<svg version="1.0" xmlns="http://www.w3.org/2000/svg"
 width="4751.000000pt" height="4671.000000pt" viewBox="0 0 4751.000000 4671.000000"
 preserveAspectRatio="xMidYMid meet">

<g transform="translate(0.000000,4671.000000) scale(0.100000,-0.100000)"
fill="#000000" stroke="none">
<path d="M22985 43500 c-1120 -48 -2148 -170 -3196 -380 -3292 -658 -6390
-2144 -8974 -4304 -492 -411 -845 -735 -1331 -1221 -686 -685 -1205 -1274
-1770 -2010 -1005 -1309 -1867 -2774 -2520 -4287 -1254 -2905 -1803 -6034
-1619 -9218 243 -4181 1768 -8155 4392 -11438 771 -964 1672 -1900 2598 -2698
2411 -2076 5246 -3546 8320 -4313 1332 -332 2674 -522 4105 -581 315 -13 1264
-13 1580 0 3416 140 6633 1091 9550 2823 1926 1144 3696 2648 5151 4377 1832
2177 3180 4704 3965 7434 704 2446 935 5025 683 7611 -74 766 -205 1585 -375
2355 -733 3320 -2299 6407 -4550 8970 -526 599 -1155 1234 -1735 1751 -2611
2327 -5731 3925 -9124 4673 -1086 239 -2076 371 -3350 447 -230 13 -1537 20
-1800 9z m1665 -2969 c610 -35 1073 -80 1610 -156 2631 -376 5166 -1374 7365
-2901 2039 -1416 3801 -3314 5050 -5439 352 -600 720 -1328 998 -1975 1245
-2903 1660 -6115 1201 -9299 -473 -3293 -1919 -6406 -4143 -8921 -442 -499
-990 -1049 -1481 -1485 -1393 -1238 -2958 -2232 -4670 -2967 -913 -393 -1918
-723 -2871 -943 -1303 -301 -2572 -445 -3929 -445 -1202 0 -2322 112 -3472
346 -2630 534 -5125 1696 -7243 3373 -758 600 -1553 1352 -2210 2091 -1452
1633 -2576 3518 -3323 5575 -902 2485 -1217 5156 -921 7830 320 2899 1390
5696 3092 8080 1274 1784 2910 3345 4736 4517 1998 1283 4213 2135 6531 2513
697 113 1415 185 2160 215 262 11 1278 4 1520 -9z"/>
<path d="M23140 38091 l0 -799 -92 -6 c-300 -20 -541 -39 -673 -52 -879 -90
-1717 -254 -2555 -501 -216 -64 -705 -226 -877 -291 -76 -29 -83 -30 -92 -14
-5 9 -100 238 -211 507 -111 270 -203 491 -204 492 -3 4 -801 -329 -810 -338
-5 -5 75 -213 197 -508 114 -275 207 -503 207 -508 0 -4 -35 -23 -78 -42 -132
-59 -589 -286 -767 -382 -947 -510 -1832 -1128 -2632 -1836 -89 -79 -165 -143
-170 -143 -4 0 -261 253 -570 562 l-563 563 -452 -453 -453 -452 567 -567 567
-568 -56 -60 c-212 -229 -591 -691 -832 -1015 -557 -747 -1070 -1606 -1446
-2420 -37 -80 -68 -146 -70 -148 -1 -1 -231 92 -510 208 -280 116 -509 209
-510 208 -6 -7 -335 -808 -335 -815 0 -4 222 -99 493 -211 271 -112 498 -207
506 -211 11 -7 3 -37 -39 -152 -462 -1263 -752 -2678 -818 -3994 l-7 -140
-803 -3 -802 -2 0 -640 0 -640 803 0 804 0 7 -152 c3 -84 15 -259 26 -388 103
-1211 355 -2372 767 -3524 41 -115 71 -212 66 -216 -4 -4 -230 -98 -501 -210
-271 -112 -495 -207 -498 -211 -4 -7 319 -805 331 -817 1 -2 231 92 510 208
280 115 509 209 511 208 1 -2 29 -61 62 -133 193 -422 494 -982 757 -1410 430
-700 973 -1428 1493 -2000 l90 -100 -566 -568 -567 -567 455 -455 455 -455
1015 1015 1014 1015 -385 387 c-562 567 -863 909 -1245 1418 -1947 2592 -2813
5784 -2453 9035 268 2426 1261 4754 2834 6645 541 650 1180 1279 1830 1800
567 454 1154 848 1785 1200 214 119 767 394 992 493 1460 644 2935 993 4537
1072 415 20 1114 11 1541 -20 1656 -123 3224 -554 4710 -1296 871 -435 1640
-934 2380 -1543 1848 -1522 3212 -3497 3971 -5751 744 -2205 860 -4612 333
-6900 -417 -1810 -1258 -3550 -2416 -5002 -345 -432 -552 -662 -1042 -1156
l-380 -383 1014 -1014 1015 -1015 452 452 453 453 -567 567 -566 566 115 129
c882 984 1649 2146 2213 3353 42 91 78 166 79 167 1 2 231 -92 511 -207 279
-116 509 -209 510 -208 17 23 334 813 328 819 -4 4 -228 99 -498 210 -269 111
-494 206 -499 210 -5 5 5 45 23 96 476 1289 773 2724 837 4041 l7 142 803 0
804 0 0 640 0 640 -802 2 -803 3 -12 210 c-77 1298 -346 2619 -783 3835 -44
123 -79 228 -77 233 1 4 225 100 497 213 272 113 499 209 503 213 5 5 -312
797 -328 819 -1 1 -231 -92 -510 -208 -280 -115 -509 -209 -511 -208 -1 2 -41
86 -89 188 -566 1210 -1359 2402 -2264 3400 l-50 55 567 567 567 568 -455 455
-455 455 -567 -567 -566 -566 -118 104 c-799 712 -1665 1323 -2599 1834 -186
102 -684 352 -837 421 -48 21 -88 44 -88 49 0 6 93 234 206 508 117 283 203
502 198 507 -9 8 -807 340 -811 337 0 -1 -94 -227 -208 -502 -114 -275 -210
-503 -213 -506 -4 -4 -112 31 -241 77 -1081 389 -2214 639 -3391 749 -139 12
-595 45 -637 45 -11 0 -13 148 -13 800 l0 800 -640 0 -640 0 0 -799z"/>
<path d="M23718 32264 c-15 -8 -33 -24 -39 -36 -8 -15 -77 -1240 -204 -3621
-106 -1979 -196 -3602 -201 -3606 -5 -5 -27 -14 -49 -21 -78 -23 -302 -141
-395 -207 -121 -87 -286 -252 -373 -373 -81 -114 -184 -319 -227 -449 -57
-177 -74 -295 -74 -501 0 -152 4 -205 22 -298 84 -421 310 -778 643 -1020 69
-50 79 -60 79 -88 0 -17 -31 -619 -70 -1338 -38 -718 -70 -1349 -70 -1401 0
-113 23 -193 79 -275 49 -72 142 -142 228 -171 l68 -24 645 0 c606 0 648 1
700 19 77 26 135 62 189 116 87 87 131 198 131 331 0 41 -31 664 -70 1384 -38
720 -70 1327 -70 1350 0 39 3 42 83 102 514 380 762 1026 631 1643 -113 536
-489 983 -991 1180 -51 20 -96 40 -100 44 -4 4 -93 1623 -199 3600 -157 2943
-194 3598 -207 3622 -27 52 -102 70 -159 38z"/>
<path d="M17990 11905 l0 -1625 1705 0 1705 0 0 1625 0 1625 -1705 0 -1705 0
0 -1625z"/>
<path d="M22070 11905 l0 -1625 1710 0 1710 0 0 1625 0 1625 -1710 0 -1710 0
0 -1625z"/>
<path d="M26150 11905 l0 -1625 1710 0 1710 0 0 1625 0 1625 -1710 0 -1710 0
0 -1625z"/>
</g>
</svg>
