<?xml version="1.0" standalone="no"?>
<!DOCTYPE svg PUBLIC "-//W3C//DTD SVG 20010904//EN"
 "http://www.w3.org/TR/2001/REC-SVG-20010904/DTD/svg10.dtd">
<svg version="1.0" xmlns="http://www.w3.org/2000/svg"
 width="1280.000000pt" height="1280.000000pt" viewBox="0 0 1280.000000 1280.000000"
 preserveAspectRatio="xMidYMid meet">
<metadata>
Created by potrace 1.15, written by Peter Selinger 2001-2017
</metadata>
<g transform="translate(0.000000,1280.000000) scale(0.100000,-0.100000)"
fill="#000000" stroke="none">
<path d="M6010 12788 c-80 -4 -150 -10 -156 -12 -6 -3 -9 -15 -7 -29 4 -22 1
-24 -49 -30 -103 -13 -125 -10 -132 18 -5 20 -11 24 -34 20 -15 -2 -107 -16
-205 -31 -98 -14 -244 -40 -325 -58 -146 -31 -147 -31 -144 -57 3 -25 -1 -27
-65 -43 -37 -9 -75 -19 -84 -22 -10 -3 -20 5 -27 20 l-11 25 -93 -25 c-51 -14
-196 -59 -321 -101 -165 -56 -226 -80 -222 -90 3 -7 7 -19 10 -25 3 -9 -23
-24 -76 -45 l-82 -32 -17 21 -17 22 -79 -33 c-44 -19 -188 -87 -321 -153 -241
-118 -242 -119 -231 -143 6 -14 9 -27 7 -29 -2 -1 -35 -21 -74 -44 l-70 -41
-16 21 -17 22 -70 -42 c-100 -59 -330 -212 -434 -289 -86 -63 -88 -66 -72 -84
10 -11 15 -21 13 -23 -2 -2 -33 -27 -69 -54 -60 -47 -66 -50 -82 -35 -9 8 -24
13 -31 10 -30 -11 -324 -269 -511 -448 -19 -18 -19 -19 -1 -39 19 -21 18 -21
-42 -82 -55 -55 -62 -59 -82 -48 -28 15 -29 14 -179 -157 -152 -175 -272 -325
-272 -341 0 -7 7 -15 15 -18 22 -9 20 -14 -26 -75 -22 -30 -44 -60 -48 -68 -6
-10 -13 -11 -30 -1 -17 8 -26 9 -36 0 -34 -28 -375 -566 -375 -592 0 -4 3 -8
8 -8 4 0 13 -4 21 -9 11 -7 5 -24 -28 -85 -39 -70 -44 -75 -69 -70 -27 6 -30
2 -109 -163 -45 -92 -95 -199 -111 -238 -46 -108 -102 -248 -99 -250 1 -1 12
-7 23 -13 l22 -11 -31 -82 c-30 -76 -33 -80 -57 -75 -26 5 -27 3 -84 -177 -72
-224 -68 -214 -110 -375 l-34 -132 24 -6 c28 -7 29 -14 8 -105 -15 -65 -17
-69 -43 -69 l-28 0 -27 -162 c-34 -205 -33 -199 -51 -343 -20 -165 -20 -165
11 -165 27 0 27 0 20 -61 -3 -34 -6 -75 -6 -90 0 -25 -4 -29 -28 -29 l-29 0
-6 -122 c-9 -155 -9 -491 -1 -552 6 -39 10 -46 29 -46 25 0 35 -34 35 -127 0
-50 -1 -53 -26 -53 l-26 0 7 -72 c14 -149 35 -318 62 -476 l26 -164 27 6 c26
5 27 3 39 -57 6 -34 14 -74 18 -89 4 -20 1 -28 -8 -28 -40 -1 -39 -13 6 -190
40 -158 84 -313 132 -458 16 -49 19 -52 44 -47 26 6 28 3 54 -76 28 -83 27
-89 -9 -102 -14 -5 94 -269 204 -505 52 -110 54 -113 81 -107 27 6 30 3 66
-69 36 -74 37 -76 18 -90 -20 -15 -19 -16 13 -79 53 -103 243 -412 334 -542 5
-6 11 -6 20 3 22 22 36 13 83 -54 45 -62 46 -66 30 -84 -9 -10 -15 -23 -14
-29 7 -19 188 -247 287 -361 189 -218 167 -198 191 -176 21 19 21 19 80 -45
53 -58 57 -66 45 -84 -8 -11 -14 -22 -14 -26 0 -9 320 -304 430 -397 94 -79
95 -80 115 -62 20 19 21 18 85 -31 69 -54 77 -63 61 -74 -25 -15 -6 -39 82
-104 118 -87 441 -301 456 -301 6 0 11 3 11 8 0 4 4 13 9 20 6 10 26 3 84 -33
70 -42 76 -48 66 -67 -10 -18 -8 -24 12 -39 29 -22 444 -232 547 -277 l73 -31
10 23 11 23 80 -31 c75 -29 79 -33 75 -58 -3 -26 1 -30 75 -58 172 -67 554
-190 587 -190 6 0 11 8 11 18 0 10 2 21 5 24 3 2 42 -5 88 -17 77 -21 82 -24
79 -48 -2 -17 3 -27 15 -31 90 -26 453 -94 646 -121 46 -6 47 -6 47 21 l0 27
61 -7 c34 -3 75 -6 90 -6 25 0 29 -4 29 -29 0 -27 3 -29 53 -35 93 -11 378
-26 505 -26 l122 0 0 29 0 28 84 2 c83 2 84 2 93 -26 l10 -28 139 7 c143 8
350 28 487 49 75 11 77 12 77 39 0 25 4 28 43 33 23 3 61 9 84 13 39 6 43 4
52 -19 l10 -25 68 13 c203 40 409 89 566 136 64 19 68 22 65 46 -3 25 2 28 76
52 l78 25 17 -23 17 -22 114 40 c129 44 352 133 470 187 71 33 78 39 69 55 -5
11 -8 23 -5 27 2 4 36 23 75 41 70 34 71 34 92 15 21 -19 22 -19 153 50 136
71 446 253 446 262 0 2 -5 13 -12 24 -7 10 -10 21 -8 23 19 15 130 87 136 87
4 0 16 -7 26 -17 17 -15 21 -14 66 17 188 132 503 380 511 401 1 6 -4 18 -12
27 -14 16 -10 22 51 74 59 51 68 55 83 43 8 -8 20 -15 25 -15 12 0 312 297
419 414 76 84 77 87 60 106 -17 19 -16 21 21 66 22 26 46 55 55 66 13 17 19
18 42 7 15 -7 28 -10 30 -8 2 2 30 38 63 79 94 118 181 234 271 364 83 119 83
119 64 140 -20 21 -19 21 25 93 43 68 47 71 70 61 13 -6 26 -9 27 -7 26 31
192 330 262 468 l57 114 -22 17 -21 16 35 77 c33 73 36 76 63 71 24 -5 30 -1
39 23 111 273 144 361 186 482 49 143 53 171 23 171 -20 0 -19 8 7 96 20 69
23 74 49 74 25 0 29 5 43 55 42 144 136 580 136 631 0 17 -6 24 -18 24 -28 0
-30 6 -20 63 4 28 11 66 13 84 5 26 11 32 33 35 26 3 27 5 39 103 14 126 30
331 39 503 l7 132 -30 0 -30 0 3 88 c3 86 4 87 30 90 l27 4 -7 161 c-6 158
-30 458 -42 526 -4 28 -9 32 -29 29 -27 -6 -31 2 -41 103 -6 62 -5 67 15 74
13 4 21 15 21 29 0 48 -82 454 -121 599 -9 35 -12 38 -38 32 -27 -6 -28 -4
-45 67 -10 40 -20 79 -23 85 -2 7 7 17 21 23 25 9 25 9 11 57 -35 115 -117
349 -170 485 -56 144 -58 146 -81 136 -29 -13 -23 -20 -62 72 l-33 74 23 18
23 17 -97 193 c-79 158 -227 429 -244 447 -2 3 -10 -1 -16 -7 -22 -22 -36 -12
-78 58 -41 68 -42 71 -25 90 16 18 16 21 -6 57 -51 82 -187 275 -287 405 -96
125 -107 136 -122 123 -9 -8 -21 -15 -26 -14 -5 0 -32 29 -61 63 -49 59 -51
65 -37 85 9 12 12 27 7 35 -16 28 -307 336 -380 402 -71 64 -75 66 -93 49 -19
-17 -22 -16 -83 41 -61 57 -63 60 -48 83 13 21 13 24 -6 40 -11 9 -76 63 -144
120 -188 158 -387 304 -404 297 -8 -3 -15 -10 -15 -16 0 -18 -19 -11 -85 33
-63 41 -76 62 -54 84 7 7 -17 28 -83 70 -100 65 -299 181 -440 257 l-88 47
-11 -25 -12 -25 -78 40 c-74 37 -78 41 -73 66 5 25 1 30 -38 47 -354 154 -602
251 -619 241 -5 -4 -9 -13 -9 -21 0 -19 -10 -18 -96 8 -68 21 -73 25 -76 52
-3 29 -8 32 -83 54 -103 29 -412 107 -493 123 -65 14 -72 11 -85 -25 -2 -5
-38 -3 -85 4 -79 13 -82 15 -82 41 0 25 -4 28 -67 39 -138 24 -547 70 -625 70
-10 0 -20 -10 -24 -25 -6 -24 -9 -25 -90 -25 l-84 0 -6 30 -6 30 -207 -1
c-113 -1 -271 -6 -351 -11z m870 -2162 c507 -63 952 -193 1395 -411 1284 -630
2170 -1874 2344 -3290 37 -296 39 -731 6 -1005 -61 -504 -192 -952 -410 -1395
-567 -1154 -1634 -1995 -2885 -2274 -674 -150 -1412 -132 -2060 50 -464 131
-832 300 -1230 564 -958 637 -1621 1648 -1824 2780 -73 408 -86 871 -35 1280
84 683 338 1343 736 1913 523 748 1290 1318 2153 1600 330 108 602 163 995
202 142 14 659 5 815 -14z"/>
</g>
</svg>
